<?xml version="1.0" standalone="no"?>
<!DOCTYPE svg PUBLIC "-//W3C//DTD SVG 20010904//EN"
 "http://www.w3.org/TR/2001/REC-SVG-20010904/DTD/svg10.dtd">
<svg version="1.0" xmlns="http://www.w3.org/2000/svg"
 width="512.000000pt" height="512.000000pt" viewBox="0 0 512.000000 512.000000"
 preserveAspectRatio="xMidYMid meet">

<g transform="translate(0.000000,512.000000) scale(0.100000,-0.100000)"
fill="#000000" stroke="none">
<path d="M2457 4566 c-21 -8 -55 -25 -75 -39 -20 -14 -404 -358 -852 -766
-727 -661 -819 -748 -850 -804 l-35 -62 0 -1005 0 -1005 33 -67 c35 -72 77
-113 152 -150 l45 -23 552 0 c541 0 552 0 579 21 15 11 37 33 48 48 20 27 21
42 26 566 5 524 6 539 26 566 11 15 33 37 48 48 27 20 39 21 406 21 367 0 379
-1 406 -21 15 -11 37 -33 48 -48 20 -27 21 -42 26 -566 5 -524 6 -539 26 -566
11 -15 33 -37 48 -48 27 -21 38 -21 574 -21 604 0 575 -3 669 66 39 29 59 55
85 106 l33 68 0 1005 0 1005 -33 61 c-29 54 -120 139 -863 815 -514 467 -848
763 -877 778 -59 30 -186 39 -245 17z"/>
</g>
</svg>
