<?xml version="1.0" standalone="no"?>
<!DOCTYPE svg PUBLIC "-//W3C//DTD SVG 20010904//EN"
 "http://www.w3.org/TR/2001/REC-SVG-20010904/DTD/svg10.dtd">
<svg version="1.0" xmlns="http://www.w3.org/2000/svg"
 width="512.000000pt" height="512.000000pt" viewBox="0 0 512.000000 512.000000"
 preserveAspectRatio="xMidYMid meet">

<g transform="translate(0.000000,512.000000) scale(0.100000,-0.100000)"
fill="#000000" stroke="none">
<path d="M1697 4038 c-192 -49 -350 -205 -402 -398 -13 -47 -15 -221 -15
-1230 0 -1267 2 -1228 -51 -1332 -48 -93 -163 -182 -277 -213 -39 -11 236 -13
1600 -14 1159 -1 1663 2 1700 10 87 18 192 74 262 140 78 73 120 136 153 230
l24 70 0 1149 c0 838 -3 1160 -11 1191 -40 149 -158 290 -300 359 -46 22 -104
42 -129 46 -25 3 -595 6 -1266 7 -1123 2 -1225 1 -1288 -15z m2440 -704 c98
-73 98 -195 0 -268 -28 -21 -31 -21 -1050 -24 -699 -2 -1034 0 -1059 8 -101
29 -140 168 -71 251 52 62 -7 59 1120 56 1029 -2 1032 -2 1060 -23z m-17 -846
c66 -34 93 -79 88 -149 -5 -65 -32 -109 -82 -133 -29 -13 -74 -16 -286 -16
-212 0 -257 3 -286 16 -50 24 -77 68 -82 133 -5 70 22 115 88 149 42 21 55 22
280 22 225 0 238 -1 280 -22z m-1221 -58 c22 -11 50 -36 62 -57 24 -37 24 -44
27 -323 4 -306 0 -337 -45 -391 -50 -58 -54 -59 -491 -59 -397 0 -399 0 -442
23 -30 16 -51 37 -67 67 -24 44 -24 46 -21 350 3 303 3 305 27 338 52 74 38
72 499 72 391 0 415 -1 451 -20z m1221 -582 c66 -34 93 -79 88 -149 -5 -65
-32 -109 -82 -133 -29 -13 -74 -16 -286 -16 -212 0 -257 3 -286 16 -50 24 -77
68 -82 133 -5 70 22 115 88 149 42 21 55 22 280 22 225 0 238 -1 280 -22z"/>
<path d="M757 3189 c-120 -28 -232 -120 -289 -236 l-33 -68 0 -766 0 -766 30
-49 c36 -58 105 -107 174 -124 129 -31 274 57 311 189 6 23 10 364 10 934 l0
897 -82 -1 c-46 -1 -100 -5 -121 -10z"/>
</g>
</svg>
