<?xml version="1.0" standalone="no"?>
<!DOCTYPE svg PUBLIC "-//W3C//DTD SVG 20010904//EN"
 "http://www.w3.org/TR/2001/REC-SVG-20010904/DTD/svg10.dtd">
<svg version="1.0" xmlns="http://www.w3.org/2000/svg"
 width="512.000000pt" height="512.000000pt" viewBox="0 0 512.000000 512.000000"
 preserveAspectRatio="xMidYMid meet">

<g transform="translate(0.000000,512.000000) scale(0.100000,-0.100000)"
fill="#000000" stroke="none">
<path d="M345 5106 c-84 -21 -147 -57 -211 -121 -65 -65 -105 -136 -123 -223
-15 -72 -15 -713 0 -784 37 -172 175 -310 347 -347 75 -16 4328 -16 4404 0
170 36 311 178 347 347 15 72 15 713 0 784 -37 172 -176 311 -347 347 -81 17
-4349 14 -4417 -3z m475 -606 c45 -23 80 -80 80 -130 0 -76 -74 -150 -151
-150 -46 0 -108 39 -130 82 -37 72 -14 151 57 194 48 29 92 30 144 4z m600 0
c45 -23 80 -80 80 -130 0 -76 -74 -150 -151 -150 -46 0 -108 39 -130 82 -37
72 -14 151 57 194 48 29 92 30 144 4z m600 0 c45 -23 80 -80 80 -130 0 -76
-74 -150 -151 -150 -46 0 -108 39 -130 82 -37 72 -14 151 57 194 48 29 92 30
144 4z m2420 0 c45 -23 80 -80 80 -130 0 -50 -35 -107 -80 -130 -38 -19 -58
-20 -671 -20 l-631 0 -40 22 c-101 57 -102 194 -2 254 l39 24 633 0 c615 0
634 -1 672 -20z"/>
<path d="M345 3296 c-84 -21 -147 -57 -211 -121 -65 -65 -105 -136 -123 -223
-15 -72 -15 -713 0 -784 37 -172 175 -310 347 -347 75 -16 4328 -16 4404 0
170 36 311 178 347 347 15 72 15 713 0 784 -37 172 -176 311 -347 347 -81 17
-4349 14 -4417 -3z m475 -606 c45 -23 80 -80 80 -130 0 -76 -74 -150 -151
-150 -46 0 -108 39 -130 82 -37 72 -14 151 57 194 48 29 92 30 144 4z m600 0
c45 -23 80 -80 80 -130 0 -76 -74 -150 -151 -150 -46 0 -108 39 -130 82 -37
72 -14 151 57 194 48 29 92 30 144 4z m600 0 c45 -23 80 -80 80 -130 0 -76
-74 -150 -151 -150 -46 0 -108 39 -130 82 -37 72 -14 151 57 194 48 29 92 30
144 4z m2420 0 c45 -23 80 -80 80 -130 0 -50 -35 -107 -80 -130 -38 -19 -58
-20 -671 -20 l-631 0 -40 22 c-101 57 -102 194 -2 254 l39 24 633 0 c615 0
634 -1 672 -20z"/>
<path d="M345 1486 c-84 -21 -147 -57 -211 -121 -65 -65 -105 -136 -123 -223
-15 -72 -15 -713 0 -784 37 -172 175 -310 347 -347 75 -16 4328 -16 4404 0
170 36 311 178 347 347 15 72 15 713 0 784 -37 172 -176 311 -347 347 -81 17
-4349 14 -4417 -3z m475 -606 c45 -23 80 -80 80 -130 0 -76 -74 -150 -151
-150 -46 0 -108 39 -130 82 -37 72 -14 151 57 194 48 29 92 30 144 4z m600 0
c45 -23 80 -80 80 -130 0 -76 -74 -150 -151 -150 -46 0 -108 39 -130 82 -37
72 -14 151 57 194 48 29 92 30 144 4z m600 0 c45 -23 80 -80 80 -130 0 -76
-74 -150 -151 -150 -46 0 -108 39 -130 82 -37 72 -14 151 57 194 48 29 92 30
144 4z m2420 0 c45 -23 80 -80 80 -130 0 -50 -35 -107 -80 -130 -38 -19 -58
-20 -671 -20 l-631 0 -40 22 c-101 57 -102 194 -2 254 l39 24 633 0 c615 0
634 -1 672 -20z"/>
</g>
</svg>
