<?xml version="1.0" standalone="no"?>
<!DOCTYPE svg PUBLIC "-//W3C//DTD SVG 20010904//EN"
 "http://www.w3.org/TR/2001/REC-SVG-20010904/DTD/svg10.dtd">
<svg version="1.0" xmlns="http://www.w3.org/2000/svg"
 width="512.000000pt" height="512.000000pt" viewBox="0 0 512.000000 512.000000"
 preserveAspectRatio="xMidYMid meet">

<g transform="translate(0.000000,512.000000) scale(0.100000,-0.100000)"
fill="#000000" stroke="none">
<path d="M2395 5111 c-11 -5 -29 -19 -40 -31 -18 -20 -20 -36 -20 -202 l0
-181 335 -89 c200 -53 361 -102 400 -120 127 -62 222 -194 243 -340 10 -72 7
-99 -30 -256 l-5 -22 273 2 274 3 3 578 c2 502 0 582 -13 607 -32 62 -9 60
-737 59 -365 0 -672 -4 -683 -8z"/>
<path d="M1475 4546 c-16 -8 -35 -23 -42 -33 -11 -20 -173 -610 -173 -632 0
-8 237 -10 832 -9 l831 3 30 111 c28 106 29 113 13 145 -9 19 -25 40 -36 47
-20 12 -1389 382 -1413 382 -6 -1 -25 -7 -42 -14z"/>
<path d="M740 3521 c-108 -34 -202 -133 -224 -236 -10 -50 -256 -2905 -256
-2976 0 -117 76 -230 189 -283 l46 -21 2065 0 2065 0 46 21 c113 53 189 166
189 284 0 71 -246 2925 -256 2975 -18 83 -88 172 -174 216 l-45 24 -1810 2
c-995 1 -1821 -2 -1835 -6z m755 -810 c50 -22 93 -71 99 -114 3 -18 7 -198 9
-402 4 -362 5 -372 31 -470 122 -461 565 -771 1025 -717 401 47 724 327 827
717 26 98 27 110 33 497 6 382 7 398 27 425 86 115 249 107 312 -17 l23 -45
-4 -410 c-4 -336 -7 -423 -21 -480 -65 -275 -178 -480 -370 -670 -118 -117
-209 -184 -343 -251 -294 -148 -670 -176 -985 -73 -206 67 -363 164 -524 324
-192 190 -305 395 -370 670 -14 57 -17 145 -21 470 -3 271 -1 412 6 436 15 51
48 88 95 110 52 23 100 24 151 0z"/>
</g>
</svg>
