<?xml version="1.0" standalone="no"?>
<!DOCTYPE svg PUBLIC "-//W3C//DTD SVG 20010904//EN"
 "http://www.w3.org/TR/2001/REC-SVG-20010904/DTD/svg10.dtd">
<svg version="1.0" xmlns="http://www.w3.org/2000/svg"
 width="512.000000pt" height="512.000000pt" viewBox="0 0 512.000000 512.000000"
 preserveAspectRatio="xMidYMid meet">

<g transform="translate(0.000000,512.000000) scale(0.100000,-0.100000)"
fill="#000000" stroke="none">
<path d="M2410 4993 c-700 -31 -1304 -436 -1593 -1069 -72 -159 -112 -299
-147 -511 -6 -40 -17 -76 -23 -81 -7 -6 -73 -12 -147 -14 -123 -3 -140 -5
-190 -30 -140 -69 -237 -231 -286 -478 -22 -110 -32 -663 -15 -794 35 -260
174 -439 371 -476 72 -14 645 -13 710 1 66 14 127 62 159 124 l26 49 0 706 c0
659 -1 708 -18 752 -30 78 -127 148 -205 148 -31 0 -35 29 -16 127 91 490 441
909 916 1097 169 67 353 96 608 96 332 0 521 -42 771 -172 184 -95 381 -266
502 -436 121 -168 215 -388 253 -588 19 -100 16 -124 -17 -124 -79 0 -175 -69
-206 -148 -17 -44 -18 -93 -18 -752 l0 -706 26 -49 c47 -93 133 -135 274 -135
35 0 66 -4 70 -10 3 -5 -4 -46 -15 -92 -116 -462 -326 -747 -606 -824 -65 -17
-442 -32 -507 -20 -28 5 -44 17 -67 51 -43 63 -87 101 -150 133 -54 26 -60 27
-262 30 -275 5 -340 -10 -431 -96 -177 -169 -117 -465 112 -553 47 -19 82 -23
231 -27 312 -8 405 25 512 181 l17 24 253 5 c190 4 271 10 327 23 398 93 666
429 816 1023 19 72 37 137 40 142 3 6 50 10 104 10 122 0 189 12 257 47 139
70 235 226 263 428 14 98 14 562 1 694 -24 226 -91 400 -195 506 -92 93 -131
108 -297 113 -91 3 -140 8 -147 16 -6 7 -17 57 -26 112 -101 632 -501 1149
-1085 1401 -196 84 -385 128 -615 143 -144 9 -193 10 -335 3z"/>
</g>
</svg>
